<svg width="350" height="672" viewBox="0 0 350 672" fill="none" xmlns="http://www.w3.org/2000/svg">
<path fill-rule="evenodd" clip-rule="evenodd" d="M0 20C0 8.95431 8.95431 0 20 0H330C341.046 0 350 8.95431 350 20V468.007C349.834 468.002 349.667 468 349.5 468C339.835 468 332 475.835 332 485.5C332 495.165 339.835 503 349.5 503C349.667 503 349.834 502.998 350 502.993V652C350 663.046 341.046 672 330 672H20C8.9543 672 0 663.046 0 652V502.993C9.43376 502.728 17 494.998 17 485.5C17 476.002 9.43376 468.272 0 468.007V20Z" fill="#EDEDED"/>
</svg>
